<svg id="svg" version="1.1" xmlns="http://www.w3.org/2000/svg" xmlns:xlink="http://www.w3.org/1999/xlink" width="400" height="400" viewBox="0, 0, 400,400"><g id="svgg"><path id="path0" d="M125.800 111.481 C 124.920 111.562,123.930 111.740,123.600 111.877 C 123.270 112.014,122.777 112.090,122.504 112.047 C 122.232 112.003,121.242 112.174,120.304 112.427 C 119.367 112.680,118.150 112.961,117.600 113.052 C 117.050 113.142,116.240 113.386,115.800 113.593 C 115.360 113.800,113.200 114.671,111.000 115.529 C 92.998 122.548,81.193 138.274,78.420 158.929 C 77.697 164.314,77.864 329.943,78.598 335.103 C 81.606 356.263,96.003 373.426,115.200 378.737 C 131.050 383.122,163.098 382.815,176.063 378.154 C 191.487 372.608,203.831 360.197,208.440 345.600 C 208.962 343.950,209.481 342.510,209.594 342.400 C 209.815 342.185,210.005 341.476,210.183 340.200 C 210.244 339.760,210.403 339.130,210.536 338.800 C 211.454 336.523,211.594 329.954,211.597 289.149 C 211.600 250.253,211.531 245.241,210.987 244.789 C 210.536 244.415,209.402 244.349,206.687 244.538 C 185.106 246.042,166.493 261.339,160.372 282.600 C 159.676 285.020,158.902 287.360,158.653 287.800 C 158.350 288.335,158.134 293.368,158.000 303.000 C 157.785 318.468,157.636 319.529,155.320 322.088 C 154.963 322.483,154.470 323.209,154.224 323.703 C 153.978 324.196,152.577 325.211,151.110 325.959 C 144.028 329.566,135.966 326.760,132.592 319.514 L 131.608 317.400 131.604 246.715 C 131.600 176.388,131.604 176.019,132.422 173.834 C 133.507 170.932,136.263 167.923,139.119 166.520 L 141.400 165.400 194.200 165.193 C 253.091 164.963,248.511 165.194,254.770 162.137 C 258.680 160.228,263.357 155.683,265.201 152.000 C 265.917 150.570,266.705 149.268,266.952 149.106 C 267.198 148.944,267.261 148.809,267.091 148.806 C 266.921 148.803,267.048 148.393,267.374 147.895 C 269.496 144.657,269.725 134.337,267.784 129.400 C 265.394 123.321,254.568 112.060,252.401 113.399 C 252.218 113.512,252.007 113.422,251.933 113.199 C 251.790 112.770,251.470 112.677,247.000 111.770 C 244.401 111.242,131.344 110.973,125.800 111.481 M251.750 114.994 C 252.198 115.333,252.401 115.820,252.254 116.203 C 252.045 116.749,251.858 116.695,251.004 115.840 C 249.522 114.358,250.078 113.727,251.750 114.994 M116.600 115.600 C 116.464 115.820,116.083 116.000,115.753 116.000 C 115.423 116.000,115.264 115.820,115.400 115.600 C 115.536 115.380,115.917 115.200,116.247 115.200 C 116.577 115.200,116.736 115.380,116.600 115.600 M243.800 115.600 C 243.940 115.827,243.604 116.000,243.024 116.000 C 242.461 116.000,242.000 115.820,242.000 115.600 C 242.000 115.380,242.349 115.200,242.776 115.200 C 243.203 115.200,243.664 115.380,243.800 115.600 M124.800 116.400 C 124.012 116.909,123.085 116.909,123.400 116.400 C 123.536 116.180,124.042 116.003,124.524 116.006 C 125.236 116.011,125.288 116.085,124.800 116.400 M253.358 116.868 C 253.165 117.181,253.285 117.253,253.722 117.085 C 254.081 116.948,254.481 117.007,254.611 117.217 C 254.741 117.428,254.397 117.600,253.847 117.600 C 252.823 117.600,252.220 117.113,252.678 116.656 C 253.122 116.211,253.660 116.379,253.358 116.868 M109.000 119.600 C 109.140 119.826,108.812 120.000,108.247 120.000 C 107.697 120.000,107.136 119.820,107.000 119.600 C 106.860 119.374,107.188 119.200,107.753 119.200 C 108.303 119.200,108.864 119.380,109.000 119.600 M104.400 122.467 C 104.400 122.943,104.282 123.215,104.137 123.070 C 103.992 122.925,103.628 123.011,103.327 123.260 C 103.027 123.510,102.670 123.603,102.534 123.467 C 102.340 123.273,103.867 121.671,104.300 121.613 C 104.355 121.606,104.400 121.990,104.400 122.467 M107.903 122.500 C 107.812 122.775,107.169 123.056,106.472 123.125 C 105.461 123.225,105.254 123.125,105.446 122.625 C 105.739 121.861,108.153 121.738,107.903 122.500 M262.400 124.647 C 262.400 124.977,262.220 125.136,262.000 125.000 C 261.780 124.864,261.600 124.483,261.600 124.153 C 261.600 123.823,261.780 123.664,262.000 123.800 C 262.220 123.936,262.400 124.317,262.400 124.647 M263.991 126.405 C 263.720 126.573,263.621 126.911,263.772 127.155 C 263.924 127.400,263.876 127.600,263.666 127.600 C 263.457 127.600,263.170 127.299,263.029 126.932 C 262.758 126.225,263.512 125.498,264.124 125.876 C 264.323 125.999,264.263 126.237,263.991 126.405 M98.000 127.680 C 98.000 128.326,97.882 128.442,97.555 128.115 C 97.310 127.870,97.231 127.474,97.378 127.235 C 97.792 126.565,98.000 126.714,98.000 127.680 M265.600 128.800 C 265.600 129.240,265.420 129.600,265.200 129.600 C 264.980 129.600,264.800 129.240,264.800 128.800 C 264.800 128.360,264.980 128.000,265.200 128.000 C 265.420 128.000,265.600 128.360,265.600 128.800 M97.200 130.400 C 97.200 130.620,96.941 130.800,96.624 130.800 C 96.307 130.800,95.936 130.620,95.800 130.400 C 95.664 130.180,95.923 130.000,96.376 130.000 C 96.829 130.000,97.200 130.180,97.200 130.400 M266.083 130.270 C 265.696 130.426,265.679 130.613,266.016 131.020 C 266.264 131.318,266.382 131.885,266.279 132.281 C 266.143 132.807,266.073 132.732,266.018 132.000 C 265.949 131.075,265.918 131.060,265.600 131.800 C 265.289 132.525,265.254 132.503,265.228 131.567 C 265.198 130.450,265.484 129.982,266.167 130.032 C 266.405 130.049,266.367 130.156,266.083 130.270 M78.555 131.600 C 78.632 132.260,78.539 132.800,78.348 132.800 C 78.156 132.800,78.000 133.700,78.000 134.800 C 78.000 136.638,78.576 137.500,79.003 136.300 C 79.291 135.490,79.519 131.455,79.308 130.905 C 78.935 129.933,78.417 130.411,78.555 131.600 M266.394 134.500 C 266.397 134.665,266.220 134.800,266.000 134.800 C 265.780 134.800,265.603 134.395,265.606 133.900 C 265.612 133.041,266.376 133.623,266.394 134.500 M134.000 157.200 C 134.000 157.420,133.741 157.600,133.424 157.600 C 133.107 157.600,132.736 157.420,132.600 157.200 C 132.464 156.980,132.723 156.800,133.176 156.800 C 133.629 156.800,134.000 156.980,134.000 157.200 M161.994 293.700 C 161.997 293.865,161.820 294.000,161.600 294.000 C 161.380 294.000,161.203 293.595,161.206 293.100 C 161.212 292.241,161.976 292.823,161.994 293.700 M160.800 325.000 C 160.800 325.330,160.620 325.600,160.400 325.600 C 160.180 325.600,160.000 325.330,160.000 325.000 C 160.000 324.670,160.180 324.400,160.400 324.400 C 160.620 324.400,160.800 324.670,160.800 325.000 M159.972 328.100 C 159.952 329.303,159.855 329.574,159.641 329.027 C 159.358 328.305,159.507 326.400,159.847 326.400 C 159.931 326.400,159.987 327.165,159.972 328.100 M91.600 334.376 C 91.600 334.803,91.420 335.264,91.200 335.400 C 90.973 335.540,90.800 335.204,90.800 334.624 C 90.800 334.061,90.980 333.600,91.200 333.600 C 91.420 333.600,91.600 333.949,91.600 334.376 M200.400 356.171 C 200.400 356.486,200.162 356.981,199.871 357.271 C 199.581 357.562,199.324 357.940,199.301 358.110 C 199.279 358.281,199.171 358.640,199.062 358.910 C 198.773 359.623,198.755 356.984,199.043 356.233 C 199.345 355.444,200.400 355.397,200.400 356.171 M196.800 357.424 C 196.800 358.004,196.627 358.340,196.400 358.200 C 196.180 358.064,196.000 357.603,196.000 357.176 C 196.000 356.749,196.180 356.400,196.400 356.400 C 196.620 356.400,196.800 356.861,196.800 357.424 M197.364 360.360 C 197.814 360.858,197.905 361.212,197.626 361.384 C 197.392 361.529,197.200 361.367,197.200 361.024 C 197.200 360.681,196.998 360.445,196.750 360.500 C 196.503 360.555,196.218 360.375,196.117 360.100 C 195.840 359.345,196.586 359.501,197.364 360.360 " stroke="none" fill="#046095" fill-rule="evenodd"></path><path id="path1" d="M128.000 31.468 C 120.167 32.028,106.343 35.990,105.536 37.907 C 105.461 38.084,104.524 38.738,103.453 39.359 C 91.088 46.533,82.333 59.052,78.930 74.425 C 78.172 77.849,77.603 132.800,78.325 132.800 C 78.529 132.800,78.632 132.260,78.555 131.600 C 78.478 130.940,78.592 130.400,78.808 130.400 C 79.024 130.400,79.205 130.625,79.212 130.900 C 79.241 132.086,79.935 130.011,80.378 127.416 C 82.256 116.405,89.196 104.532,97.474 98.165 C 99.055 96.950,100.405 95.819,100.474 95.654 C 101.007 94.381,108.742 90.262,113.600 88.664 C 123.092 85.543,115.808 85.800,194.800 85.800 C 272.888 85.800,265.972 85.583,272.772 88.247 C 280.375 91.225,287.996 98.486,291.650 106.232 C 295.010 113.354,295.287 116.112,295.109 140.621 L 294.964 160.600 293.911 164.000 C 289.799 177.280,281.222 185.688,268.200 189.204 C 266.440 189.680,264.447 190.233,263.772 190.434 C 263.089 190.638,251.630 190.804,237.972 190.809 C 204.476 190.820,201.037 191.101,191.311 194.622 C 174.862 200.576,161.739 216.713,158.558 234.898 C 158.029 237.923,157.619 288.152,158.119 288.652 C 158.385 288.919,159.078 287.054,160.366 282.600 C 166.543 261.246,185.216 245.954,206.841 244.538 C 208.970 244.398,210.781 244.445,210.903 244.643 C 211.352 245.370,301.321 244.648,305.466 243.883 C 311.928 242.692,317.391 240.570,324.800 236.372 C 333.374 231.514,343.073 219.150,346.371 208.872 C 349.355 199.576,349.200 203.456,349.200 137.898 L 349.200 79.101 348.204 74.183 C 347.155 68.999,345.353 63.572,343.881 61.155 C 343.396 60.361,342.231 58.433,341.291 56.870 C 336.981 49.706,330.052 42.826,323.700 39.404 C 322.545 38.782,321.600 38.111,321.600 37.913 C 321.600 37.715,321.435 37.655,321.234 37.779 C 321.033 37.903,320.808 37.823,320.733 37.600 C 320.174 35.921,307.808 32.202,300.800 31.605 C 296.663 31.252,132.835 31.123,128.000 31.468 M250.000 114.618 C 250.000 115.379,252.024 116.802,252.254 116.203 C 252.401 115.820,252.198 115.333,251.750 114.994 C 250.998 114.424,250.000 114.210,250.000 114.618 M115.400 115.600 C 115.264 115.820,115.423 116.000,115.753 116.000 C 116.083 116.000,116.464 115.820,116.600 115.600 C 116.736 115.380,116.577 115.200,116.247 115.200 C 115.917 115.200,115.536 115.380,115.400 115.600 M242.000 115.600 C 242.000 115.820,242.461 116.000,243.024 116.000 C 243.604 116.000,243.940 115.827,243.800 115.600 C 243.664 115.380,243.203 115.200,242.776 115.200 C 242.349 115.200,242.000 115.380,242.000 115.600 M123.400 116.400 C 123.085 116.909,124.012 116.909,124.800 116.400 C 125.288 116.085,125.236 116.011,124.524 116.006 C 124.042 116.003,123.536 116.180,123.400 116.400 M252.678 116.656 C 252.220 117.113,252.823 117.600,253.847 117.600 C 254.397 117.600,254.741 117.428,254.611 117.217 C 254.481 117.007,254.081 116.948,253.722 117.085 C 253.285 117.253,253.165 117.181,253.358 116.868 C 253.660 116.379,253.122 116.211,252.678 116.656 M107.000 119.600 C 107.136 119.820,107.697 120.000,108.247 120.000 C 108.812 120.000,109.140 119.826,109.000 119.600 C 108.864 119.380,108.303 119.200,107.753 119.200 C 107.188 119.200,106.860 119.374,107.000 119.600 M103.243 122.423 C 102.717 122.861,102.398 123.331,102.534 123.467 C 102.670 123.603,103.027 123.510,103.327 123.260 C 103.628 123.011,103.992 122.925,104.137 123.070 C 104.282 123.215,104.400 122.943,104.400 122.467 C 104.400 121.427,104.437 121.429,103.243 122.423 M105.446 122.625 C 105.254 123.125,105.461 123.225,106.472 123.125 C 108.141 122.960,108.486 122.000,106.876 122.000 C 106.166 122.000,105.589 122.252,105.446 122.625 M261.600 124.153 C 261.600 124.483,261.780 124.864,262.000 125.000 C 262.220 125.136,262.400 124.977,262.400 124.647 C 262.400 124.317,262.220 123.936,262.000 123.800 C 261.780 123.664,261.600 123.823,261.600 124.153 M263.267 125.958 C 262.730 126.291,263.048 127.600,263.666 127.600 C 263.876 127.600,263.924 127.400,263.772 127.155 C 263.621 126.911,263.720 126.573,263.991 126.405 C 264.263 126.237,264.323 125.999,264.124 125.876 C 263.925 125.753,263.539 125.790,263.267 125.958 M97.378 127.235 C 97.231 127.474,97.310 127.870,97.555 128.115 C 97.882 128.442,98.000 128.326,98.000 127.680 C 98.000 126.714,97.792 126.565,97.378 127.235 M264.800 128.800 C 264.800 129.240,264.980 129.600,265.200 129.600 C 265.420 129.600,265.600 129.240,265.600 128.800 C 265.600 128.360,265.420 128.000,265.200 128.000 C 264.980 128.000,264.800 128.360,264.800 128.800 M95.800 130.400 C 95.936 130.620,96.307 130.800,96.624 130.800 C 96.941 130.800,97.200 130.620,97.200 130.400 C 97.200 130.180,96.829 130.000,96.376 130.000 C 95.923 130.000,95.664 130.180,95.800 130.400 M265.467 130.267 C 265.320 130.413,265.213 130.998,265.228 131.567 C 265.254 132.503,265.289 132.525,265.600 131.800 C 265.918 131.060,265.949 131.075,266.018 132.000 C 266.073 132.732,266.143 132.807,266.279 132.281 C 266.382 131.885,266.264 131.318,266.016 131.020 C 265.679 130.613,265.696 130.426,266.083 130.270 C 266.367 130.156,266.405 130.049,266.167 130.032 C 265.928 130.014,265.613 130.120,265.467 130.267 M265.606 133.900 C 265.603 134.395,265.780 134.800,266.000 134.800 C 266.501 134.800,266.501 134.376,266.000 133.600 C 265.686 133.115,265.611 133.172,265.606 133.900 M132.600 157.200 C 132.736 157.420,133.107 157.600,133.424 157.600 C 133.741 157.600,134.000 157.420,134.000 157.200 C 134.000 156.980,133.629 156.800,133.176 156.800 C 132.723 156.800,132.464 156.980,132.600 157.200 M161.206 293.100 C 161.203 293.595,161.380 294.000,161.600 294.000 C 162.101 294.000,162.101 293.576,161.600 292.800 C 161.286 292.315,161.211 292.372,161.206 293.100 M160.000 325.000 C 160.000 325.330,160.180 325.600,160.400 325.600 C 160.620 325.600,160.800 325.330,160.800 325.000 C 160.800 324.670,160.620 324.400,160.400 324.400 C 160.180 324.400,160.000 324.670,160.000 325.000 M159.516 327.327 C 159.418 327.838,159.475 328.603,159.641 329.027 C 159.855 329.574,159.952 329.303,159.972 328.100 C 160.003 326.234,159.793 325.879,159.516 327.327 M90.800 334.624 C 90.800 335.204,90.973 335.540,91.200 335.400 C 91.420 335.264,91.600 334.803,91.600 334.376 C 91.600 333.949,91.420 333.600,91.200 333.600 C 90.980 333.600,90.800 334.061,90.800 334.624 M199.043 356.233 C 198.755 356.984,198.773 359.623,199.062 358.910 C 199.171 358.640,199.279 358.281,199.301 358.110 C 199.324 357.940,199.581 357.562,199.871 357.271 C 200.162 356.981,200.400 356.486,200.400 356.171 C 200.400 355.397,199.345 355.444,199.043 356.233 M196.000 357.176 C 196.000 357.603,196.180 358.064,196.400 358.200 C 196.627 358.340,196.800 358.004,196.800 357.424 C 196.800 356.861,196.620 356.400,196.400 356.400 C 196.180 356.400,196.000 356.749,196.000 357.176 M196.117 360.100 C 196.218 360.375,196.503 360.555,196.750 360.500 C 196.998 360.445,197.200 360.681,197.200 361.024 C 197.200 361.367,197.392 361.529,197.626 361.384 C 197.905 361.212,197.814 360.858,197.364 360.360 C 196.586 359.501,195.840 359.345,196.117 360.100 " stroke="none" fill="#04b4eb" fill-rule="evenodd"></path></g></svg>